<?xml version="1.0" encoding="UTF-8" standalone="no"?>
<!-- Created with Inkscape (http://www.inkscape.org/) -->

<svg
   version="1.1"
   id="svg12823"
   width="277.96072"
   height="278.78043"
   viewBox="0 0 277.96072 278.78043"
   sodipodi:docname="C&amp;S Capital Logo 2tone.svg"
   inkscape:export-filename="CSMBI Logo.png"
   inkscape:export-xdpi="500"
   inkscape:export-ydpi="500"
   inkscape:version="1.2.1 (9c6d41e, 2022-07-14)"
   xmlns:inkscape="http://www.inkscape.org/namespaces/inkscape"
   xmlns:sodipodi="http://sodipodi.sourceforge.net/DTD/sodipodi-0.dtd"
   xmlns="http://www.w3.org/2000/svg"
   xmlns:svg="http://www.w3.org/2000/svg">
  <defs
     id="defs12827">
    <clipPath
       clipPathUnits="userSpaceOnUse"
       id="clipPath12839">
      <path
         d="M 0,0 H 1562.5 V 1593.75 H 0 Z"
         clip-rule="evenodd"
         id="path12837" />
    </clipPath>
    <clipPath
       clipPathUnits="userSpaceOnUse"
       id="clipPath12851">
      <path
         d="M 0,0 H 1562.5 V 1562.5 H 0 Z"
         clip-rule="evenodd"
         id="path12849" />
    </clipPath>
    <clipPath
       clipPathUnits="userSpaceOnUse"
       id="clipPath12863">
      <path
         d="M 347.46146,347.46146 H 1216.2115 V 1216.2115 H 347.46146 Z"
         clip-rule="evenodd"
         id="path12861" />
    </clipPath>
    <clipPath
       clipPathUnits="userSpaceOnUse"
       id="clipPath12881">
      <path
         d="M 0,0 H 1562.5 V 1562.5 H 0 Z"
         clip-rule="evenodd"
         id="path12879" />
    </clipPath>
  </defs>
  <sodipodi:namedview
     id="namedview12825"
     pagecolor="#ffffff"
     bordercolor="#000000"
     borderopacity="0.25"
     inkscape:showpageshadow="2"
     inkscape:pageopacity="0.0"
     inkscape:pagecheckerboard="0"
     inkscape:deskcolor="#d1d1d1"
     showgrid="false"
     inkscape:zoom="2.054"
     inkscape:cx="25.559883"
     inkscape:cy="151.16845"
     inkscape:window-width="2026"
     inkscape:window-height="1205"
     inkscape:window-x="682"
     inkscape:window-y="51"
     inkscape:window-maximized="0"
     inkscape:current-layer="g12875" />
  <g
     id="g12831"
     inkscape:groupmode="layer"
     inkscape:label="Page 1"
     transform="matrix(0.31999998,0,0,0.31999998,-111.20342,-110.58905)">
    <g
       id="g13674">
      <path
         d="m 339.70001,430 c -41.89999,22.5 -90.8,31 -137.8,24.5 -44.8,-6.20001 -87.5,-25.70001 -121.199998,-55.89999 -35,-31.20002 -59.900001,-73.4 -70.400001,-119.10001 -10.20000013,-44.2 -6.8000005,-91.2 9.5,-133.5 16.5,-42.8 46,-80.199997 83.899999,-106.099998 40.5,-27.700001 90.80001,-40.400002 139.60001,-37.0999989 45.1,3 88.89999,19.4999999 124.69998,47.0999989 37.29999,28.799995 65,69.199998 78.79999,114.200008 13.29999,43.39999 13.1,90.39999 -0.20001,133.69998 -13.4,43.6 -40,82.79999 -75.70002,111.20001 -10.1,8.10001 -21,15.39999 -32.39999,21.60001 -3.09998,1.69998 -0.19998,0.19998 1.20004,-0.60001 40.9,-22.20001 74.60001,-55.5 96,-97 21.5,-41.79999 29.79999,-90 23.20001,-136.60001 -6.79998,-48.3 -29.39999,-93.9 -63.70001,-128.600002 -33.1,-33.599999 -76.6,-56.200001 -123,-64.4000017 C 225.60001,-4.8000002 177,1.9000001 134.3,22.299999 93.400002,41.900002 58.200005,71.599998 34.300003,110.3 9.6999998,150.10001 -2.3,197.2 0.40000001,243.8 3.2,292.60001 22.1,340 53.5,377.5 c 30.300003,36.10001 71.7,62.20001 117.3,74.10001 45.80001,12 94.99999,9.29998 139.2,-7.70002 9.79999,-3.79998 19.29999,-8.29998 28.60001,-13.29998 1.29998,-0.60001 4.29998,-2.30002 1.1,-0.60001 z"
         style="fill:#358e9d;fill-opacity:1;fill-rule:nonzero;stroke:none"
         id="path12871"
         transform="matrix(1.8646706,0,0,1.8617377,347.46146,345.6094)" />
      <path
         d="m 289.70001,450.5 c -44.69999,10.39999 -91.89999,7.20001 -134.6,-9.70001 -41.5,-16.5 -77.700001,-45.29999 -102.900005,-82.20001 -26.9,-39.29999 -41.8,-88.4 -38.900002,-136.2 2.799999,-45.09999 19.599999,-88.90001 47.400002,-124.500001 57.099995,-73 156.400005,-103.9000019 244.799995,-76 42.10001,13.299999 79.89999,39 107.60001,73.400001 29.5,36.50001 46.89999,82.1 49.5,128.9 5.20001,92.80002 -55,181.69998 -140.30002,216 -10.59998,4.20001 -21.5,7.60001 -32.59998,10.30002 -0.39999,0.10001 0.29999,4.89999 0,5 46.20001,-11.10001 88.10001,-36.39999 119.10001,-72.5 30.29999,-35.29999 49.1,-79.89999 53.29999,-126.20001 4,-44.2 -3.9,-89.2 -24.29999,-128.7 -21.4,-41.499999 -55.9,-75.599998 -97.5,-96.900001 C 298.5,9.6999998 250.3,1.9000001 203.8,9.1000004 156.60001,16.400001 112.3,38.800003 78.5,72.699997 45.799999,105.6 23.700001,148.5 16,194.3 c -7.3000002,43.40001 -2.4,89.2 14.700001,129.80001 18.100002,43 49.799999,79.69998 89.599999,104.19998 40,24.5 87.40001,36.20001 134.2,32.6 11.89999,-0.89999 23.60001,-2.79998 35.20001,-5.5 0.4,0 -0.30002,-4.79998 0,-4.89999 z"
         style="fill:#358e9d;fill-opacity:1;fill-rule:nonzero;stroke:none"
         id="path12869"
         transform="matrix(1.8646706,0,0,1.8617377,347.46146,345.6094)" />
    </g>
    <g
       id="g12875">
      <text
         xml:space="preserve"
         style="font-style:normal;font-variant:normal;font-weight:normal;font-stretch:normal;font-size:195.625px;font-family:Montserrat;-inkscape-font-specification:'Montserrat, Normal';font-variant-ligatures:normal;font-variant-caps:normal;font-variant-numeric:normal;font-variant-east-asian:normal;writing-mode:lr-tb;fill:#1d4e56;fill-opacity:1;fill-rule:nonzero;stroke:none;stroke-width:3.125"
         id="text12887"
         x="587.37329"
         y="722.82306"><tspan
           sodipodi:role="line"
           id="tspan412"
           x="587.37329"
           y="722.82306"
           style="stroke-width:3.125">C&amp;S</tspan></text>
      <text
         xml:space="preserve"
         style="font-style:normal;font-variant:normal;font-weight:normal;font-stretch:normal;font-size:195.625px;font-family:Montserrat;-inkscape-font-specification:'Montserrat, Normal';font-variant-ligatures:normal;font-variant-caps:normal;font-variant-numeric:normal;font-variant-east-asian:normal;writing-mode:lr-tb;fill:#1d4e56;fill-opacity:1;fill-rule:nonzero;stroke:none;stroke-width:3.125"
         id="text12891"
         x="442.80704"
         y="900.20868"><tspan
           sodipodi:role="line"
           id="tspan414"
           x="442.80704"
           y="900.20868"
           style="stroke-width:3.125">Capital</tspan></text>
    </g>
    <g
       id="g13687">
      <path
         d="m 67.099998,389.10001 c -30.900001,-34.9 -50.7,-78.5 -56.2,-124.80002 -5.3000005,-45 2.899999,-91.2 23.7,-131.5 C 56.699997,89.799988 93.399994,52.799988 137.39999,32.399986 179,13.099987 226.2,6.9999866 271.39999,14.599987 c 92.69999,15.700001 168.19999,89.400003 185.9,181.800003 8.39999,44 3.70001,90.19999 -13.60001,131.5 -18.29999,43.9 -50.6,81.4 -91.1,106.4 -80.29999,49.39999 -188.7,38.5 -260.500004,-21 -8.899979,-7.5 -17.199974,-15.59998 -24.999978,-24.19998 -0.300003,-0.29999 -4.2,2.70001 -4.5,2.39999 32.200005,35.89999 75.000012,61.10001 122.199992,71.29999 46.1,10 95,5.29999 138.39999,-13.29999 41.29999,-17.79999 77.69998,-46.5 103.10001,-83.70001 26.70001,-39.10001 40.6,-86.4 39.5,-133.7 -1.10001,-47.7 -17.29999,-94.5 -46.20001,-132.499999 C 390.29999,60.999992 348.99997,32.199989 302.39996,18.399994 257.39999,5 208.3,5.9000001 163.8,21.1 121.5,35.599998 82.900002,62 54.900002,96.900002 25.299999,133.8 7.8000002,179.8 5.1999998,227.10001 c -2.5999999,47.6 9.8999992,95.39999 35.5999992,135.5 6.5,10.20001 13.899998,19.79998 21.899998,28.79998 0.300003,0.4 4.200005,-2.6 4.400001,-2.29998 z"
         style="display:inline;fill:#358e9d;fill-opacity:1;fill-rule:nonzero;stroke:none"
         id="path12873"
         transform="matrix(1.8646706,0,0,1.8617377,347.46146,345.6094)" />
      <path
         d="m 452.89999,233.3 c -0.1,46.80001 -15.70001,93.2 -43.29998,130.90001 -26.29999,36 -63.29999,63.79999 -105.19999,78.9 -43.5,15.70001 -91.69999,17.5 -136.19999,5.29998 -43.1,-11.89999 -82.199999,-36.79998 -111.300006,-70.80001 -29.399999,-34.4 -47.9999996,-77.4 -52.7000003,-122.4 -5.00000005,-48.1 7.5000003,-97.6 33.2000003,-138.39999 23.700001,-37.699999 58.599999,-67.900004 99.300006,-86.000002 42.40001,-18.799999 90.40001,-24.0000002 135.90001,-14.8 43.79998,8.8 84.5,31.000001 115.79998,62.899998 31.5,32.100004 53,73.400004 61,117.699994 2.29999,12.6 3.5,25.39999 3.5,38.19999 -3e-5,3.40003 0.1,0.10002 -3e-5,-1.49997 -0.1,-45.90001 -13.1,-90.69999 -39.1,-128.69999 -26.20001,-38.200001 -64.10001,-68.000004 -107.5,-84.100002 -45,-16.7000011 -95.2,-18.5000004 -141.4,-5 C 120.3,28.5 80.300003,55.5 51.400002,92 22.400002,128.60001 5.5,173.8 3.2000008,220.39999 c -2.2000001,44.70002 7.1000002,89.10001 29.5000002,128 22.899997,39.9 58.100002,72.4 99.799999,92 43.60001,20.5 93.60001,26.29999 140.79999,16.60001 45.5,-9.29999 87.5,-33 119.20001,-67 31.89999,-34.10001 52.60001,-78 58.60001,-124.29999 1.29998,-10.3 1.89999,-20.6 1.89999,-31 0,-1.6 -0.10001,-4.90001 -0.10001,-1.40001 z"
         style="display:inline;fill:#358e9d;fill-opacity:1;fill-rule:nonzero;stroke:none"
         id="path12867"
         transform="matrix(1.8646706,0,0,1.8617377,347.46146,345.6094)" />
    </g>
  </g>
</svg>
